<svg width="24" height="24" viewBox="0 0 24 24" fill="none" xmlns="http://www.w3.org/2000/svg">
<rect width="24" height="24" fill="#1E1E1E"/>
<path d="M5.16 8.88C5.95529 8.88 6.6 8.23529 6.6 7.44C6.6 6.64471 5.95529 6 5.16 6C4.36471 6 3.72 6.64471 3.72 7.44C3.72 8.23529 4.36471 8.88 5.16 8.88Z" fill="#FCFDFF"/>
<path d="M18.48 8.88C19.2753 8.88 19.92 8.23529 19.92 7.44C19.92 6.64471 19.2753 6 18.48 6C17.6847 6 17.04 6.64471 17.04 7.44C17.04 8.23529 17.6847 8.88 18.48 8.88Z" fill="#FCFDFF"/>
<path fill-rule="evenodd" clip-rule="evenodd" d="M14.46 14.0004C16.086 14.0004 17.712 13.2888 19.3392 11.8668C19.4952 11.8032 19.6488 11.8428 19.8036 11.9868C19.9596 12.1272 19.9596 12.3108 19.8036 12.5316C18.06 14.0976 16.2804 14.88 14.46 14.88C12.6396 14.88 10.86 14.0976 9.1164 12.5328C8.9604 12.3108 8.9604 12.1284 9.1164 11.9868C9.2724 11.8428 9.426 11.8032 9.5808 11.8668C11.208 13.2876 12.8328 13.9992 14.46 13.9992V14.0004Z" fill="#FCFDFF"/>
</svg>
